# xmcd
#
# Track frame offsets:
#	150
#	16637
#	37250
#	61937
#	76965
#	90025
#	106635
#	118145
#	139205
#	157490
#	186697
#	203695
#
# Disc length: 2959 seconds
#
# Revision: 1
# Processed by: cddbd v1.5.1PL0 Copyright (c) Steve Scherf et al.
# Submitted via: audiograbber 1.83.01
#
DISCID=9d0b8d0c
DTITLE=Tim Disney Band - Struck By Lightning
DYEAR=1993
DGENRE=Blues
TTITLE0=Telephone doctor
TTITLE1=Low life
TTITLE2=Both feet on the ground
TTITLE3=Wanna be your cowboy
TTITLE4=When the sun goes down
TTITLE5=Body and soul
TTITLE6=Your world too
TTITLE7=Strike
TTITLE8=Song to Muddy
TTITLE9=Struck by lightning
TTITLE10=Train I ride
TTITLE11=You knock me out
EXTD=
EXTT0=
EXTT1=
EXTT2=
EXTT3=
EXTT4=
EXTT5=
EXTT6=
EXTT7=
EXTT8=
EXTT9=
EXTT10=
EXTT11=
PLAYORDER=
